{
	"patcher" : 	{
		"fileversion" : 1,
		"appversion" : 		{
			"major" : 8,
			"minor" : 1,
			"revision" : 5,
			"architecture" : "x64",
			"modernui" : 1
		}
,
		"classnamespace" : "box",
		"rect" : [ 874.0, 79.0, 375.0, 879.0 ],
		"bglocked" : 0,
		"openinpresentation" : 1,
		"default_fontsize" : 12.0,
		"default_fontface" : 0,
		"default_fontname" : "Arial",
		"gridonopen" : 1,
		"gridsize" : [ 15.0, 15.0 ],
		"gridsnaponopen" : 1,
		"objectsnaponopen" : 1,
		"statusbarvisible" : 2,
		"toolbarvisible" : 1,
		"lefttoolbarpinned" : 0,
		"toptoolbarpinned" : 0,
		"righttoolbarpinned" : 0,
		"bottomtoolbarpinned" : 0,
		"toolbars_unpinned_last_save" : 0,
		"tallnewobj" : 0,
		"boxanimatetime" : 200,
		"enablehscroll" : 1,
		"enablevscroll" : 1,
		"devicewidth" : 0.0,
		"description" : "",
		"digest" : "",
		"tags" : "",
		"style" : "",
		"subpatcher_template" : "",
		"assistshowspatchername" : 0,
		"boxes" : [ 			{
				"box" : 				{
					"id" : "obj-2350",
					"maxclass" : "message",
					"numinlets" : 2,
					"numoutlets" : 1,
					"outlettype" : [ "" ],
					"patching_rect" : [ 84.0, 191.0, 35.0, 22.0 ],
					"presentation" : 1,
					"presentation_rect" : [ 0.0, 53.0, 60.5, 22.0 ],
					"text" : "open"
				}

			}
, 			{
				"box" : 				{
					"bgmode" : 0,
					"border" : 0,
					"clickthrough" : 0,
					"data" : 					{
						"autosave" : 1,
						"snapshot" : 						{
							"filetype" : "C74Snapshot",
							"version" : 2,
							"minorversion" : 0,
							"name" : "snapshotlist",
							"origin" : "vst~",
							"type" : "list",
							"subtype" : "Undefined",
							"embed" : 1,
							"snapshot" : 							{
								"pluginname" : "ValhallaRoom.auinfo",
								"plugindisplayname" : "ValhallaRoom",
								"pluginsavedname" : "C74_AU:/ValhallaRoom",
								"pluginsaveduniqueid" : 1383429485,
								"version" : 1,
								"isbank" : 0,
								"isbase64" : 1,
								"blob" : "941.hAGaoMGcv.y0AHv.DTfAGfPBJr.CM3.WsEla0YVXiQWcxUlbTQVXzE1UyUmXzkGbkckckI2bo8laeAwCpU2XkAEa0cVZtMEcgQWYTQWdvUFUtEVakIwaDklaOAAq...............E..............P..........H..........C..........A.........T..........F.........vA.........f..........I.........fB.........r..........L.........PC.........3..........O..........D.........DA.........R.........vD.....HgT0UWaP.vSQHPSVMjLgPj....OVEFanEFarElTu8Vaf.Ga0cVZtYUYxMWZu4VOhDiK03RLh.BbxU1bkQmSg0VY8HBQkYVX0wFch.RaogWOh.iKzHSL4jSN4jCL4PCLvjyL4jCMwPiHf.mbkQVYrEVd8HBLh.BYkMVX40iHvHBHHk1YnMTcz0iHvHBHkElbrkGSgQWYMkFd8HBLh.BagQWYSkldk0iHvHBHrEFckMjbuM2b8HBLt.yL4LyMv.yM3TSNyPSNxTCL2jyL0HBHrEFck0zajIUXzUVOh.iHfvVXzUVSuQFQkAGcn0iHv3BLwTyMzfCLyDCMybyL4bCLvLSL2PiHfHEUBE1by0TcrQWZvwVd8HBLt.yL4LyMv.yM3TSNyPSNxTCL2jyL0HBHRQEVuYWYx0iHv3hLyXiLx.CM2jCLwDSMyTiMzPSMyHBHRQERocFZMUGazkFbrkWOh.iHfHEUHk1Yng0a1Ulb8HBLh.RYgIGa4MUZ5UVOh.iHfTVXxwVdCI2ayMWOh.iK2DiM0LSMzPSNvHCNvDSMwLiM2HiHfTVXxwVdM8FYREFck0iHv3BLvbCN2PCLwTyMwfiM4fSMvDSM3XSNh.RYgIGa40zajQTYvQGZ8HBLtLCL2.CN1XSL1bSMzTyLwfiMvLSMh.RYgIGa4MUYtQVOh.iKyPiMzTiM2.iM0HyL3jSMxXyL1biHfPVZlYVcyk1at0iHvHBHzkGbk0iHwHBHskFdL81Xq0iHvHBH0k1UoQFcn0iH2LSMh.RcogTYocFZz0iHzXCLh7hO.HQX0YFdXUkazkFcrUFY.f..W..I.jB.w.PN.rD.PAPU.nU.IDfCA.w.gMfY........BD..........O...................C7F"
							}
,
							"snapshotlist" : 							{
								"current_snapshot" : 0,
								"entries" : [ 									{
										"filetype" : "C74Snapshot",
										"version" : 2,
										"minorversion" : 0,
										"name" : "ValhallaRoom",
										"origin" : "ValhallaRoom.auinfo",
										"type" : "AudioUnit",
										"subtype" : "AudioEffect",
										"embed" : 0,
										"snapshot" : 										{
											"pluginname" : "ValhallaRoom.auinfo",
											"plugindisplayname" : "ValhallaRoom",
											"pluginsavedname" : "C74_AU:/ValhallaRoom",
											"pluginsaveduniqueid" : 1383429485,
											"version" : 1,
											"isbank" : 0,
											"isbase64" : 1,
											"blob" : "941.hAGaoMGcv.y0AHv.DTfAGfPBJr.CM3.WsEla0YVXiQWcxUlbTQVXzE1UyUmXzkGbkckckI2bo8laeAwCpU2XkAEa0cVZtMEcgQWYTQWdvUFUtEVakIwaDklaOAAq...............E..............P..........H..........C..........A.........T..........F.........vA.........f..........I.........fB.........r..........L.........PC.........3..........O..........D.........DA.........R.........vD.....HgT0UWaP.vSQHPSVMjLgPj....OVEFanEFarElTu8Vaf.Ga0cVZtYUYxMWZu4VOhDiK03RLh.BbxU1bkQmSg0VY8HBQkYVX0wFch.RaogWOh.iKzHSL4jSN4jCL4PCLvjyL4jCMwPiHf.mbkQVYrEVd8HBLh.BYkMVX40iHvHBHHk1YnMTcz0iHvHBHkElbrkGSgQWYMkFd8HBLh.BagQWYSkldk0iHvHBHrEFckMjbuM2b8HBLt.yL4LyMv.yM3TSNyPSNxTCL2jyL0HBHrEFck0zajIUXzUVOh.iHfvVXzUVSuQFQkAGcn0iHv3BLwTyMzfCLyDCMybyL4bCLvLSL2PiHfHEUBE1by0TcrQWZvwVd8HBLt.yL4LyMv.yM3TSNyPSNxTCL2jyL0HBHRQEVuYWYx0iHv3hLyXiLx.CM2jCLwDSMyTiMzPSMyHBHRQERocFZMUGazkFbrkWOh.iHfHEUHk1Yng0a1Ulb8HBLh.RYgIGa4MUZ5UVOh.iHfTVXxwVdCI2ayMWOh.iK2DiM0LSMzPSNvHCNvDSMwLiM2HiHfTVXxwVdM8FYREFck0iHv3BLvbCN2PCLwTyMwfiM4fSMvDSM3XSNh.RYgIGa40zajQTYvQGZ8HBLtLCL2.CN1XSL1bSMzTyLwfiMvLSMh.RYgIGa4MUYtQVOh.iKyPiMzTiM2.iM0HyL3jSMxXyL1biHfPVZlYVcyk1at0iHvHBHzkGbk0iHwHBHskFdL81Xq0iHvHBH0k1UoQFcn0iH2LSMh.RcogTYocFZz0iHzXCLh7hO.HQX0YFdXUkazkFcrUFY.f..W..I.jB.w.PN.rD.PAPU.nU.IDfCA.w.gMfY........BD..........O...................C7F"
										}
,
										"fileref" : 										{
											"name" : "ValhallaRoom",
											"filename" : "ValhallaRoom_20200919.maxsnap",
											"filepath" : "~/Documents/Max 8/Snapshots",
											"filepos" : -1,
											"snapshotfileid" : "f6d85d2366552fd05aa9b23eac440274"
										}

									}
 ]
							}

						}

					}
,
					"enablehscroll" : 0,
					"enablevscroll" : 0,
					"id" : "obj-2116",
					"lockeddragscroll" : 0,
					"maxclass" : "newobj",
					"numinlets" : 2,
					"numoutlets" : 9,
					"offset" : [ 0.0, 0.0 ],
					"outlettype" : [ "multichannelsignal", "multichannelsignal", "", "", "", "", "", "", "" ],
					"patching_rect" : [ 187.0, 215.586204409599304, 103.0, 22.0 ],
					"saved_object_attributes" : 					{
						"parameter_enable" : 1,
						"parameter_mappable" : 0
					}
,
					"text" : "mc.vst~",
					"varname" : "vst",
					"viewvisibility" : 0
				}

			}
, 			{
				"box" : 				{
					"id" : "obj-2071",
					"maxclass" : "newobj",
					"numinlets" : 2,
					"numoutlets" : 1,
					"outlettype" : [ "int" ],
					"patching_rect" : [ 532.076917588710785, 671.0, 39.0, 22.0 ],
					"text" : "+ 100"
				}

			}
, 			{
				"box" : 				{
					"id" : "obj-1530",
					"maxclass" : "newobj",
					"numinlets" : 2,
					"numoutlets" : 1,
					"outlettype" : [ "int" ],
					"patching_rect" : [ 516.0, 637.300008177757263, 30.0, 22.0 ],
					"text" : "* 55"
				}

			}
, 			{
				"box" : 				{
					"id" : "obj-1529",
					"maxclass" : "newobj",
					"numinlets" : 2,
					"numoutlets" : 1,
					"outlettype" : [ "int" ],
					"patching_rect" : [ 469.076917588710785, 608.0, 29.5, 22.0 ],
					"text" : "% 5"
				}

			}
, 			{
				"box" : 				{
					"id" : "obj-1528",
					"maxclass" : "newobj",
					"numinlets" : 2,
					"numoutlets" : 1,
					"outlettype" : [ "int" ],
					"patching_rect" : [ 516.0, 608.0, 29.5, 22.0 ],
					"text" : "/ 5"
				}

			}
, 			{
				"box" : 				{
					"id" : "obj-1257",
					"maxclass" : "newobj",
					"numinlets" : 1,
					"numoutlets" : 1,
					"outlettype" : [ "" ],
					"patching_rect" : [ 899.807690799236298, 576.400007605552673, 121.0, 22.0 ],
					"text" : "prepend script delete"
				}

			}
, 			{
				"box" : 				{
					"id" : "obj-664",
					"maxclass" : "newobj",
					"numinlets" : 2,
					"numoutlets" : 2,
					"outlettype" : [ "", "" ],
					"patching_rect" : [ 899.807690799236298, 540.207698404788971, 194.192309200763702, 22.0 ],
					"text" : "combine prep s @triggers 1"
				}

			}
, 			{
				"box" : 				{
					"id" : "obj-626",
					"maxclass" : "button",
					"numinlets" : 1,
					"numoutlets" : 1,
					"outlettype" : [ "bang" ],
					"parameter_enable" : 0,
					"patching_rect" : [ 694.923079073429108, 306.824333667755127, 24.0, 24.0 ]
				}

			}
, 			{
				"box" : 				{
					"id" : "obj-474",
					"maxclass" : "newobj",
					"numinlets" : 1,
					"numoutlets" : 2,
					"outlettype" : [ "int", "" ],
					"patching_rect" : [ 664.423079073429108, 410.316979706287384, 63.0, 22.0 ],
					"text" : "unpack i s"
				}

			}
, 			{
				"box" : 				{
					"id" : "obj-475",
					"maxclass" : "newobj",
					"numinlets" : 1,
					"numoutlets" : 1,
					"outlettype" : [ "list" ],
					"patching_rect" : [ 664.423079073429108, 379.586210250854492, 63.0, 22.0 ],
					"text" : "listfunnel"
				}

			}
, 			{
				"box" : 				{
					"id" : "obj-472",
					"maxclass" : "newobj",
					"numinlets" : 2,
					"numoutlets" : 2,
					"outlettype" : [ "", "" ],
					"patching_rect" : [ 664.423079073429108, 349.931037068367004, 63.0, 22.0 ],
					"text" : "zl.reg"
				}

			}
, 			{
				"box" : 				{
					"id" : "obj-142",
					"maxclass" : "newobj",
					"numinlets" : 1,
					"numoutlets" : 1,
					"outlettype" : [ "" ],
					"patching_rect" : [ 708.230773210525513, 544.053852379322052, 121.0, 22.0 ],
					"text" : "prepend script delete"
				}

			}
, 			{
				"box" : 				{
					"id" : "obj-44",
					"maxclass" : "newobj",
					"numinlets" : 2,
					"numoutlets" : 1,
					"outlettype" : [ "" ],
					"patching_rect" : [ 629.923079073429108, 35.200000882148743, 100.0, 22.0 ],
					"text" : "pack set Effect#1"
				}

			}
, 			{
				"box" : 				{
					"id" : "obj-18",
					"maxclass" : "newobj",
					"numinlets" : 1,
					"numoutlets" : 1,
					"outlettype" : [ "bang" ],
					"patching_rect" : [ 629.923079073429108, 11.200000882148743, 132.0, 22.0 ],
					"text" : "loadbang"
				}

			}
, 			{
				"box" : 				{
					"fontname" : "Ableton Sans Light",
					"fontsize" : 16.0,
					"id" : "obj-17",
					"maxclass" : "comment",
					"numinlets" : 1,
					"numoutlets" : 0,
					"patching_rect" : [ 629.923079073429108, 60.200000882148743, 89.0, 26.0 ],
					"presentation" : 1,
					"presentation_rect" : [ 0.0, 0.0, 89.0, 26.0 ],
					"text" : "Effect#1"
				}

			}
, 			{
				"box" : 				{
					"id" : "obj-15",
					"maxclass" : "newobj",
					"numinlets" : 1,
					"numoutlets" : 3,
					"outlettype" : [ "bang", "", "bang" ],
					"patching_rect" : [ 176.0, 144.965516924858093, 41.0, 22.0 ],
					"text" : "t b s b"
				}

			}
, 			{
				"box" : 				{
					"fontname" : "Arial",
					"fontsize" : 13.0,
					"id" : "obj-89",
					"maxclass" : "newobj",
					"numinlets" : 1,
					"numoutlets" : 1,
					"outlettype" : [ "" ],
					"patching_rect" : [ 176.0, 62.200000882148743, 95.0, 23.0 ],
					"text" : "prepend prefix"
				}

			}
, 			{
				"box" : 				{
					"fontname" : "Arial",
					"fontsize" : 13.0,
					"id" : "obj-13",
					"maxclass" : "message",
					"numinlets" : 2,
					"numoutlets" : 1,
					"outlettype" : [ "" ],
					"patching_rect" : [ 176.0, 87.200000882148743, 98.0, 23.0 ],
					"text" : "autopopulate 1"
				}

			}
, 			{
				"box" : 				{
					"autopopulate" : 1,
					"fontface" : 0,
					"fontname" : "Arial",
					"fontsize" : 13.0,
					"id" : "obj-90",
					"items" : [ "Analog Four.component", ",", "Analog Heat.component", ",", "Analog Keys.component", ",", "Analog Rytm.component", ",", "Chorus.component", ",", "Console Recall.component", ",", "Crystallizer.component", ",", "Decapitator.component", ",", "Devil-Loc.component", ",", "Devil-Loc_Deluxe.component", ",", "Digitakt.component", ",", "Digitone.component", ",", "EchoBoy.component", ",", "EchoBoyJr.component", ",", "EffectRack.component", ",", "FilterFreak1.component", ",", "FilterFreak2.component", ",", "GrainStreamer.component", ",", "GRM BandPass.component", ",", "GRM BandPassMono.component", ",", "GRM Comb Filter.component", ",", "GRM Contrast.component", ",", "GRM Delays.component", ",", "GRM Doppler Mono.component", ",", "GRM Doppler.component", ",", "GRM Equalizer Mono.component", ",", "GRM Equalizer.component", ",", "GRM Evolution.component", ",", "GRM Freeze.component", ",", "GRM Fusion.component", ",", "GRM Grinder.component", ",", "GRM PitchAccum.component", ",", "GRM Reson.component", ",", "GRM Shift.component", ",", "GRM Shuffling.component", ",", "GRM SpaceFilter.component", ",", "GRM SpaceGrain.component", ",", "GRM Spaces.component", ",", "GRM Spaces3D.component", ",", "GRM Warp.component", ",", "IdeeFixer.component", ",", "iZNeutron3AUHook.component", ",", "iZNeutron3VisualMixerAUHook.component", ",", "iZOzone9AUHook.component", ",", "iZRelayAUHook.component", ",", "iZRX7DeclickerAUHook.component", ",", "iZRX7DeclipperAUHook.component", ",", "iZRX7HumRemovalAUHook.component", ",", "iZRX7VoiceDenoiserAUHook.component", ",", "iZStutterEditAUHook.component", ",", "iZTonalBalanceControl2AUHook.component", ",", "iZTrash2AUHook.component", ",", "LittleAlterBoy.component", ",", "LittleMicroShift.component", ",", "LittlePlate.component", ",", "LittlePrimalTap.component", ",", "LittleRadiator.component", ",", "MicroShift.component", ",", "MNSpectralAveraging.component", ",", "MNSpectralBinShift.component", ",", "MNSpectralBlurring.component", ",", "MNSpectralDroneMaker.component", ",", "MNSpectralEmergence.component", ",", "MNSpectralFilterbank.component", ",", "MNSpectralFreezing.component", ",", "MNSpectralGateAndHold.component", ",", "MNSpectralGlidingFilters.component", ",", "MNSpectralGranulation.component", ",", "MNSpectralHarmonizer.component", ",", "MNSpectralPartialGlide.component", ",", "MNSpectralPitchShift.component", ",", "MNSpectralPulsing.component", ",", "MNSpectralShimmer.component", ",", "MNSpectralShuffle.component", ",", "MNSpectralStretch.component", ",", "MNSpectralTracing.component", ",", "MNSpectralWeave.component", ",", "MNSuperFilterBank.component", ",", "PanMan.component", ",", "PhaseMistress.component", ",", "PrimalTap.component", ",", "Radiator.component", ",", "SieQ.component", ",", "Tremolator.component", ",", "UAD 4K Buss Compressor.component", ",", "UAD 4K Channel Strip.component", ",", "UAD ADA Flanger.component", ",", "UAD ADA STD-1 Stereo Tapped Delay.component", ",", "UAD AKG BX 20.component", ",", "UAD Ampeg B15N.component", ",", "UAD Ampeg SVT3Pro.component", ",", "UAD Ampeg SVTVR Classic.component", ",", "UAD Ampeg SVTVR.component", ",", "UAD Ampex ATR-102.component", ",", "UAD AMS Neve DFC Channel Strip.component", ",", "UAD AMS RMX16 Expanded.component", ",", "UAD AMS RMX16.component", ",", "UAD Antares Auto-Tune Realtime.component", ",", "UAD API 2500.component", ",", "UAD API 550A.component", ",", "UAD API 560.component", ",", "UAD API Vision Channel Strip.component", ",", "UAD Auto-Tune Realtime Access.component", ",", "UAD Auto-Tune Realtime Advanced.component", ",", "UAD Avalon VT-737sp.component", ",", "UAD Bermuda Triangle.component", ",", "UAD Brigade Chorus.component", ",", "UAD bx_digital V2 Mono.component", ",", "UAD bx_digital V2.component", ",", "UAD bx_digital V3 mix.component", ",", "UAD bx_digital V3.component", ",", "UAD bx_masterdesk Classic.component", ",", "UAD bx_masterdesk.component", ",", "UAD bx_refinement.component", ",", "UAD bx_saturator V2.component", ",", "UAD bx_subsynth.component", ",", "UAD bx_tuner.component", ",", "UAD Cambridge.component", ",", "UAD Capitol Chambers.component", ",", "UAD Century Tube Channel Strip.component", ",", "UAD Chandler GAV19T.component", ",", "UAD Chandler Limited Curve Bender.component", ",", "UAD Chandler Limited Zener Limiter.component", ",", "UAD Cooper Time Cube.component", ",", "UAD CS-1.component", ",", "UAD Dangerous BAX EQ Master.component", ",", "UAD Dangerous BAX EQ Mix.component", ",", "UAD dbx 160.component", ",", "UAD Diezel Herbert.component", ",", "UAD Diezel VH4.component", ",", "UAD DreamVerb.component", ",", "UAD Dytronics Cyclosonic Panner.component", ",", "UAD Dytronics Tri-Stereo Chorus.component", ",", "UAD Eden WT800.component", ",", "UAD elysia alpha master.component", ",", "UAD elysia alpha mix.component", ",", "UAD elysia mpressor.component", ",", "UAD Empirical Labs Distressor.component", ",", "UAD Empirical Labs FATSO Jr.component", ",", "UAD Empirical Labs FATSO Sr.component", ",", "UAD EMT 140.component", ",", "UAD EMT 250.component", ",", "UAD ENGL E646 VS.component", ",", "UAD ENGL E765 RT.component", ",", "UAD ENGL Savage 120.component", ",", "UAD EP-34 Tape Echo.component", ",", "UAD Eventide H910 Harmonizer.component", ",", "UAD Fairchild 660.component", ",", "UAD Fairchild 670 Legacy.component", ",", "UAD Fairchild 670.component", ",", "UAD Fender 55 Tweed Deluxe.component", ",", "UAD Friedman BE100.component", ",", "UAD Friedman Buxom Betty.component", ",", "UAD Friedman DS40.component", ",", "UAD Fuchs Overdrive Supreme 50.component", ",", "UAD Fuchs Train II.component", ",", "UAD Galaxy Tape Echo.component", ",", "UAD Gallien Krueger 800RB.component", ",", "UAD Harrison 32C SE.component", ",", "UAD Harrison 32C.component", ",", "UAD Helios Type 69 Legacy.component", ",", "UAD Helios Type 69.component", ",", "UAD Ibanez Tube Screamer TS808.component", ",", "UAD Korg SDD-3000.component", ",", "UAD LA3A.component", ",", "UAD Lexicon 224.component", ",", "UAD Lexicon 480L.component", ",", "UAD Little Labs IBP.component", ",", "UAD Little Labs VOG.component", ",", "UAD Maag EQ4.component", ",", "UAD Manley Massive Passive MST.component", ",", "UAD Manley Massive Passive.component", ",", "UAD Manley Variable Mu.component", ",", "UAD Manley VOXBOX.component", ",", "UAD Marshall Bluesbreaker 1962.component", ",", "UAD Marshall JMP 2203.component", ",", "UAD Marshall Plexi Classic.component", ",", "UAD Marshall Plexi Super Lead 1959.component", ",", "UAD Marshall Silver Jubilee 2555.component", ",", "UAD MDWEQ5-3B.component", ",", "UAD MDWEQ5-5B.component", ",", "UAD Millennia NSEQ-2.component", ",", "UAD Moog Multimode Filter SE.component", ",", "UAD Moog Multimode Filter XL.component", ",", "UAD Moog Multimode Filter.component", ",", "UAD MXR Flanger-Doubler.component", ",", "UAD Neve 1073 Legacy.component", ",", "UAD Neve 1073.component", ",", "UAD Neve 1073SE Legacy.component", ",", "UAD Neve 1081.component", ",", "UAD Neve 1081SE.component", ",", "UAD Neve 1084.component", ",", "UAD Neve 31102.component", ",", "UAD Neve 31102SE.component", ",", "UAD Neve 33609.component", ",", "UAD Neve 33609SE.component", ",", "UAD Neve 88RS Legacy.component", ",", "UAD Neve 88RS.component", ",", "UAD Neve Preamp.component", ",", "UAD Ocean Way Mic Collection 180.component", ",", "UAD Ocean Way Mic Collection.component", ",", "UAD Ocean Way Studios.component", ",", "UAD OTO Biscuit 8-bit Effects.component", ",", "UAD Oxford Dynamic EQ.component", ",", "UAD Oxford Envolution.component", ",", "UAD Oxford EQ.component", ",", "UAD Oxford Inflator.component", ",", "UAD Oxford Limiter.component", ",", "UAD Oxford SuprEsser DS.component", ",", "UAD Oxide Tape.component", ",", "UAD Precision Buss Compressor.component", ",", "UAD Precision Channel Strip.component", ",", "UAD Precision De-Esser.component", ",", "UAD Precision Delay Mod L.component", ",", "UAD Precision Delay Mod.component", ",", "UAD Precision Enhancer Hz.component", ",", "UAD Precision Enhancer kHz.component", ",", "UAD Precision Equalizer.component", ",", "UAD Precision K-Stereo.component", ",", "UAD Precision Limiter.component", ",", "UAD Precision Maximizer.component", ",", "UAD Precision Multiband.component", ",", "UAD Precision Reflection Engine.component", ",", "UAD Pultec EQP-1A Legacy.component", ",", "UAD Pultec EQP-1A.component", ",", "UAD Pultec HLF-3C.component", ",", "UAD Pultec MEQ-5.component", ",", "UAD Pultec-Pro Legacy.component", ",", "UAD Pure Plate.component", ",", "UAD Putnam Mic Collection 180.component", ",", "UAD Putnam Mic Collection.component", ",", "UAD Raw.component", ",", "UAD RealVerb-Pro.component", ",", "UAD Roland CE-1.component", ",", "UAD Roland Dimension D.component", ",", "UAD Roland RE-201.component", ",", "UAD Shadow Hills Mastering Compressor.component", ",", "UAD Softube Amp Room Half-Stack.component", ",", "UAD Softube Bass Amp Room 8x10.component", ",", "UAD Softube Bass Amp Room.component", ",", "UAD Softube Metal Amp Room.component", ",", "UAD Softube Vintage Amp Room.component", ",", "UAD Softube Vocoder.component", ",", "UAD Sound Machine Wood Works.component", ",", "UAD SPL Transient Designer.component", ",", "UAD SPL TwinTube.component", ",", "UAD SPL Vitalizer MK2-T.component", ",", "UAD SSL E Channel Strip Legacy.component", ",", "UAD SSL E Channel Strip.component", ",", "UAD SSL G Bus Compressor Legacy.component", ",", "UAD SSL G Bus Compressor.component", ",", "UAD Studer A800.component", ",", "UAD Studio D Chorus.component", ",", "UAD Suhr PT100.component", ",", "UAD Suhr SE100.component", ",", "UAD Summit Audio TLA-100A.component", ",", "UAD Teletronix LA-2.component", ",", "UAD Teletronix LA-2A Gray.component", ",", "UAD Teletronix LA-2A Legacy.component", ",", "UAD Teletronix LA-2A Silver.component", ",", "UAD Thermionic Culture Vulture.component", ",", "UAD Tonelux Tilt Live.component", ",", "UAD Tonelux Tilt.component", ",", "UAD Townsend Labs Sphere 180.component", ",", "UAD Townsend Labs Sphere.component", ",", "UAD Trident A-Range.component", ",", "UAD TS Overdrive.component", ",", "UAD Tube-Tech CL 1B mk II.component", ",", "UAD Tube-Tech CL 1B.component", ",", "UAD Tube-Tech ME 1B.component", ",", "UAD Tube-Tech PE 1C.component", ",", "UAD UA 1176 Rev A.component", ",", "UAD UA 1176AE.component", ",", "UAD UA 1176LN Legacy.component", ",", "UAD UA 1176LN Rev E.component", ",", "UAD UA 1176SE Legacy.component", ",", "UAD UA 175-B.component", ",", "UAD UA 176.component", ",", "UAD UA 610-A.component", ",", "UAD UA 610-B.component", ",", "UAD V76 Preamp.component", ",", "UAD Valley People Dyna-mite.component", ",", "UAD Vertigo VSC-2.component", ",", "UAD Vertigo VSM-3.component", ",", "ValhallaRoom.component", ",", "ValhallaRoomAU64.component", ",", "ValhallaShimmer.component", ",", "ValhallaShimmerAU64.component", ",", "ValhallaSpaceModulator.component", ",", "ValhallaSupermassive.component", ",", "ValhallaVintageVerb.component", ",", "ValhallaVintageVerbAU64.component", ",", "WaveShell1-AU 10.0.component", ",", "WaveShell1-AU 11.0.component" ],
					"maxclass" : "umenu",
					"numinlets" : 1,
					"numoutlets" : 3,
					"outlettype" : [ "int", "", "" ],
					"parameter_enable" : 0,
					"patching_rect" : [ 176.0, 113.0, 149.5, 23.0 ],
					"prefix" : "Macintosh HD:/Library/Audio/Plug-Ins/Components/",
					"presentation" : 1,
					"presentation_rect" : [ 0.0, 28.0, 220.5, 23.0 ]
				}

			}
, 			{
				"box" : 				{
					"id" : "obj-85",
					"linecount" : 3,
					"maxclass" : "message",
					"numinlets" : 2,
					"numoutlets" : 1,
					"outlettype" : [ "" ],
					"patching_rect" : [ 176.0, 11.200000882148743, 159.0, 49.0 ],
					"text" : "\"Macintosh HD:/Library/Audio/Plug-Ins/Components/\""
				}

			}
, 			{
				"box" : 				{
					"id" : "obj-140",
					"maxclass" : "newobj",
					"numinlets" : 1,
					"numoutlets" : 2,
					"outlettype" : [ "bang", "" ],
					"patching_rect" : [ 424.576917588710785, 213.586204409599304, 31.0, 22.0 ],
					"text" : "t b s"
				}

			}
, 			{
				"box" : 				{
					"id" : "obj-137",
					"maxclass" : "newobj",
					"numinlets" : 2,
					"numoutlets" : 2,
					"outlettype" : [ "", "" ],
					"patching_rect" : [ 424.576917588710785, 485.500002920627594, 51.0, 22.0 ],
					"text" : "zl group"
				}

			}
, 			{
				"box" : 				{
					"id" : "obj-215",
					"maxclass" : "newobj",
					"numinlets" : 2,
					"numoutlets" : 2,
					"outlettype" : [ "", "" ],
					"patching_rect" : [ 424.576917588710785, 548.90000718832016, 45.0, 22.0 ],
					"text" : "zl rot 1"
				}

			}
, 			{
				"box" : 				{
					"id" : "obj-214",
					"maxclass" : "newobj",
					"numinlets" : 2,
					"numoutlets" : 1,
					"outlettype" : [ "int" ],
					"patching_rect" : [ 469.076917588710785, 637.300008177757263, 30.0, 22.0 ],
					"text" : "* 55"
				}

			}
, 			{
				"box" : 				{
					"id" : "obj-213",
					"maxclass" : "newobj",
					"numinlets" : 1,
					"numoutlets" : 2,
					"outlettype" : [ "", "int" ],
					"patching_rect" : [ 424.576917588710785, 579.700004637241364, 63.0, 22.0 ],
					"text" : "unpack s i"
				}

			}
, 			{
				"box" : 				{
					"id" : "obj-207",
					"maxclass" : "newobj",
					"numinlets" : 1,
					"numoutlets" : 1,
					"outlettype" : [ "list" ],
					"patching_rect" : [ 424.576917588710785, 515.500002920627594, 56.0, 22.0 ],
					"text" : "listfunnel"
				}

			}
, 			{
				"box" : 				{
					"id" : "obj-186",
					"maxclass" : "newobj",
					"numinlets" : 2,
					"numoutlets" : 2,
					"outlettype" : [ "", "" ],
					"patching_rect" : [ 1110.838471233844757, 767.476930379867554, 156.0, 22.0 ],
					"text" : "combine prep s @triggers 1"
				}

			}
, 			{
				"box" : 				{
					"id" : "obj-179",
					"maxclass" : "message",
					"numinlets" : 2,
					"numoutlets" : 1,
					"outlettype" : [ "" ],
					"patching_rect" : [ 915.005135148763657, 740.769237816333771, 69.0, 22.0 ],
					"text" : "prepend $1"
				}

			}
, 			{
				"box" : 				{
					"id" : "obj-177",
					"maxclass" : "newobj",
					"numinlets" : 1,
					"numoutlets" : 1,
					"outlettype" : [ "" ],
					"patching_rect" : [ 915.005135148763657, 772.769238293170929, 57.0, 22.0 ],
					"text" : "tosymbol"
				}

			}
, 			{
				"box" : 				{
					"id" : "obj-176",
					"maxclass" : "newobj",
					"numinlets" : 5,
					"numoutlets" : 1,
					"outlettype" : [ "" ],
					"patching_rect" : [ 721.403845399618149, 834.635899305343628, 553.301287144422531, 22.0 ],
					"text" : "pack s s s i i"
				}

			}
, 			{
				"box" : 				{
					"id" : "obj-16",
					"linecount" : 2,
					"maxclass" : "message",
					"numinlets" : 2,
					"numoutlets" : 1,
					"outlettype" : [ "" ],
					"patching_rect" : [ 718.70513254404068, 865.056414306163788, 549.0, 35.0 ],
					"text" : "script newobject live.dial @varname $1 @presentation 1 @presentation_rect $4 $5 55. 45. 48., script newobject newobj @text $2 @varname $3, script connect $1 1 $3 0, script connect $3 0 vst 0"
				}

			}
, 			{
				"box" : 				{
					"id" : "obj-14",
					"maxclass" : "newobj",
					"numinlets" : 1,
					"numoutlets" : 2,
					"outlettype" : [ "", "" ],
					"patching_rect" : [ 686.00000274181366, 979.533119559288025, 67.0, 22.0 ],
					"save" : [ "#N", "thispatcher", ";", "#Q", "end", ";" ],
					"text" : "thispatcher"
				}

			}
, 			{
				"box" : 				{
					"id" : "obj-3",
					"maxclass" : "message",
					"numinlets" : 2,
					"numoutlets" : 1,
					"outlettype" : [ "" ],
					"patching_rect" : [ 424.576917588710785, 187.586204409599304, 49.0, 22.0 ],
					"text" : "params"
				}

			}
, 			{
				"box" : 				{
					"id" : "obj-54",
					"maxclass" : "newobj",
					"numinlets" : 2,
					"numoutlets" : 1,
					"outlettype" : [ "multichannelsignal" ],
					"patching_rect" : [ 187.0, 287.586204409599304, 207.0, 22.0 ],
					"text" : "mc.stereo~ @autogain 1"
				}

			}
, 			{
				"box" : 				{
					"id" : "obj-5",
					"maxclass" : "newobj",
					"numinlets" : 1,
					"numoutlets" : 0,
					"patching_rect" : [ 187.0, 312.786206126213074, 56.0, 22.0 ],
					"text" : "mc.dac~"
				}

			}
, 			{
				"box" : 				{
					"id" : "obj-10",
					"maxclass" : "message",
					"numinlets" : 2,
					"numoutlets" : 1,
					"outlettype" : [ "" ],
					"patching_rect" : [ 187.0, 183.586204409599304, 68.0, 22.0 ],
					"text" : "plug_au $1"
				}

			}
, 			{
				"box" : 				{
					"id" : "obj-2352",
					"maxclass" : "live.dial",
					"numinlets" : 1,
					"numoutlets" : 2,
					"outlettype" : [ "", "float" ],
					"parameter_enable" : 1,
					"patching_rect" : [ 0.0, 0.0, 41.0, 48.0 ],
					"presentation" : 1,
					"presentation_rect" : [ 0.0, 100.0, 55.0, 48.0 ],
					"saved_attribute_attributes" : 					{
						"valueof" : 						{
							"parameter_longname" : "mix",
							"parameter_shortname" : "mix",
							"parameter_type" : 0,
							"parameter_unitstyle" : 0
						}

					}
,
					"varname" : "mix"
				}

			}
, 			{
				"box" : 				{
					"id" : "obj-2353",
					"maxclass" : "newobj",
					"numinlets" : 1,
					"numoutlets" : 1,
					"outlettype" : [ "" ],
					"patching_rect" : [ 0.0, 0.0, 100.0, 22.0 ],
					"text" : "prepend mix",
					"varname" : "prepmix"
				}

			}
, 			{
				"box" : 				{
					"id" : "obj-2355",
					"maxclass" : "live.dial",
					"numinlets" : 1,
					"numoutlets" : 2,
					"outlettype" : [ "", "float" ],
					"parameter_enable" : 1,
					"patching_rect" : [ 0.0, 0.0, 41.0, 48.0 ],
					"presentation" : 1,
					"presentation_rect" : [ 55.0, 100.0, 55.0, 48.0 ],
					"saved_attribute_attributes" : 					{
						"valueof" : 						{
							"parameter_longname" : "predelay",
							"parameter_shortname" : "predelay",
							"parameter_type" : 0,
							"parameter_unitstyle" : 0
						}

					}
,
					"varname" : "predelay"
				}

			}
, 			{
				"box" : 				{
					"id" : "obj-2356",
					"maxclass" : "newobj",
					"numinlets" : 1,
					"numoutlets" : 1,
					"outlettype" : [ "" ],
					"patching_rect" : [ 0.0, 0.0, 102.0, 22.0 ],
					"text" : "prepend predelay",
					"varname" : "preppredelay"
				}

			}
, 			{
				"box" : 				{
					"id" : "obj-2358",
					"maxclass" : "live.dial",
					"numinlets" : 1,
					"numoutlets" : 2,
					"outlettype" : [ "", "float" ],
					"parameter_enable" : 1,
					"patching_rect" : [ 0.0, 0.0, 41.0, 48.0 ],
					"presentation" : 1,
					"presentation_rect" : [ 110.0, 100.0, 55.0, 48.0 ],
					"saved_attribute_attributes" : 					{
						"valueof" : 						{
							"parameter_longname" : "decay",
							"parameter_shortname" : "decay",
							"parameter_type" : 0,
							"parameter_unitstyle" : 0
						}

					}
,
					"varname" : "decay"
				}

			}
, 			{
				"box" : 				{
					"id" : "obj-2359",
					"maxclass" : "newobj",
					"numinlets" : 1,
					"numoutlets" : 1,
					"outlettype" : [ "" ],
					"patching_rect" : [ 0.0, 0.0, 100.0, 22.0 ],
					"text" : "prepend decay",
					"varname" : "prepdecay"
				}

			}
, 			{
				"box" : 				{
					"id" : "obj-2361",
					"maxclass" : "live.dial",
					"numinlets" : 1,
					"numoutlets" : 2,
					"outlettype" : [ "", "float" ],
					"parameter_enable" : 1,
					"patching_rect" : [ 0.0, 0.0, 41.0, 48.0 ],
					"presentation" : 1,
					"presentation_rect" : [ 165.0, 100.0, 55.0, 48.0 ],
					"saved_attribute_attributes" : 					{
						"valueof" : 						{
							"parameter_longname" : "HighCut",
							"parameter_shortname" : "HighCut",
							"parameter_type" : 0,
							"parameter_unitstyle" : 0
						}

					}
,
					"varname" : "HighCut"
				}

			}
, 			{
				"box" : 				{
					"id" : "obj-2362",
					"maxclass" : "newobj",
					"numinlets" : 1,
					"numoutlets" : 1,
					"outlettype" : [ "" ],
					"patching_rect" : [ 0.0, 0.0, 100.0, 22.0 ],
					"text" : "prepend HighCut",
					"varname" : "prepHighCut"
				}

			}
, 			{
				"box" : 				{
					"id" : "obj-2364",
					"maxclass" : "live.dial",
					"numinlets" : 1,
					"numoutlets" : 2,
					"outlettype" : [ "", "float" ],
					"parameter_enable" : 1,
					"patching_rect" : [ 0.0, 0.0, 41.0, 48.0 ],
					"presentation" : 1,
					"presentation_rect" : [ 220.0, 100.0, 55.0, 48.0 ],
					"saved_attribute_attributes" : 					{
						"valueof" : 						{
							"parameter_longname" : "earlyLateMix",
							"parameter_shortname" : "earlyLateMix",
							"parameter_type" : 0,
							"parameter_unitstyle" : 0
						}

					}
,
					"varname" : "earlyLateMix"
				}

			}
, 			{
				"box" : 				{
					"id" : "obj-2365",
					"maxclass" : "newobj",
					"numinlets" : 1,
					"numoutlets" : 1,
					"outlettype" : [ "" ],
					"patching_rect" : [ 0.0, 0.0, 124.0, 22.0 ],
					"text" : "prepend earlyLateMix",
					"varname" : "prepearlyLateMix"
				}

			}
, 			{
				"box" : 				{
					"id" : "obj-2367",
					"maxclass" : "live.dial",
					"numinlets" : 1,
					"numoutlets" : 2,
					"outlettype" : [ "", "float" ],
					"parameter_enable" : 1,
					"patching_rect" : [ 0.0, 0.0, 41.0, 48.0 ],
					"presentation" : 1,
					"presentation_rect" : [ 0.0, 155.0, 55.0, 48.0 ],
					"saved_attribute_attributes" : 					{
						"valueof" : 						{
							"parameter_longname" : "lateSize",
							"parameter_shortname" : "lateSize",
							"parameter_type" : 0,
							"parameter_unitstyle" : 0
						}

					}
,
					"varname" : "lateSize"
				}

			}
, 			{
				"box" : 				{
					"id" : "obj-2368",
					"maxclass" : "newobj",
					"numinlets" : 1,
					"numoutlets" : 1,
					"outlettype" : [ "" ],
					"patching_rect" : [ 0.0, 0.0, 100.0, 22.0 ],
					"text" : "prepend lateSize",
					"varname" : "preplateSize"
				}

			}
, 			{
				"box" : 				{
					"id" : "obj-2370",
					"maxclass" : "live.dial",
					"numinlets" : 1,
					"numoutlets" : 2,
					"outlettype" : [ "", "float" ],
					"parameter_enable" : 1,
					"patching_rect" : [ 0.0, 0.0, 41.0, 48.0 ],
					"presentation" : 1,
					"presentation_rect" : [ 55.0, 155.0, 55.0, 48.0 ],
					"saved_attribute_attributes" : 					{
						"valueof" : 						{
							"parameter_longname" : "lateCross",
							"parameter_shortname" : "lateCross",
							"parameter_type" : 0,
							"parameter_unitstyle" : 0
						}

					}
,
					"varname" : "lateCross"
				}

			}
, 			{
				"box" : 				{
					"id" : "obj-2371",
					"maxclass" : "newobj",
					"numinlets" : 1,
					"numoutlets" : 1,
					"outlettype" : [ "" ],
					"patching_rect" : [ 0.0, 0.0, 107.0, 22.0 ],
					"text" : "prepend lateCross",
					"varname" : "preplateCross"
				}

			}
, 			{
				"box" : 				{
					"id" : "obj-2373",
					"maxclass" : "live.dial",
					"numinlets" : 1,
					"numoutlets" : 2,
					"outlettype" : [ "", "float" ],
					"parameter_enable" : 1,
					"patching_rect" : [ 0.0, 0.0, 41.0, 48.0 ],
					"presentation" : 1,
					"presentation_rect" : [ 110.0, 155.0, 55.0, 48.0 ],
					"saved_attribute_attributes" : 					{
						"valueof" : 						{
							"parameter_longname" : "lateModRate",
							"parameter_shortname" : "lateModRate",
							"parameter_type" : 0,
							"parameter_unitstyle" : 0
						}

					}
,
					"varname" : "lateModRate"
				}

			}
, 			{
				"box" : 				{
					"id" : "obj-2374",
					"maxclass" : "newobj",
					"numinlets" : 1,
					"numoutlets" : 1,
					"outlettype" : [ "" ],
					"patching_rect" : [ 0.0, 0.0, 124.0, 22.0 ],
					"text" : "prepend lateModRate",
					"varname" : "preplateModRate"
				}

			}
, 			{
				"box" : 				{
					"id" : "obj-2376",
					"maxclass" : "live.dial",
					"numinlets" : 1,
					"numoutlets" : 2,
					"outlettype" : [ "", "float" ],
					"parameter_enable" : 1,
					"patching_rect" : [ 0.0, 0.0, 41.0, 48.0 ],
					"presentation" : 1,
					"presentation_rect" : [ 165.0, 155.0, 55.0, 48.0 ],
					"saved_attribute_attributes" : 					{
						"valueof" : 						{
							"parameter_longname" : "lateModDepth",
							"parameter_shortname" : "lateModDepth",
							"parameter_type" : 0,
							"parameter_unitstyle" : 0
						}

					}
,
					"varname" : "lateModDepth"
				}

			}
, 			{
				"box" : 				{
					"id" : "obj-2377",
					"maxclass" : "newobj",
					"numinlets" : 1,
					"numoutlets" : 1,
					"outlettype" : [ "" ],
					"patching_rect" : [ 0.0, 0.0, 131.0, 22.0 ],
					"text" : "prepend lateModDepth",
					"varname" : "preplateModDepth"
				}

			}
, 			{
				"box" : 				{
					"id" : "obj-2379",
					"maxclass" : "live.dial",
					"numinlets" : 1,
					"numoutlets" : 2,
					"outlettype" : [ "", "float" ],
					"parameter_enable" : 1,
					"patching_rect" : [ 0.0, 0.0, 41.0, 48.0 ],
					"presentation" : 1,
					"presentation_rect" : [ 220.0, 155.0, 55.0, 48.0 ],
					"saved_attribute_attributes" : 					{
						"valueof" : 						{
							"parameter_longname" : "RTBassMultiply",
							"parameter_shortname" : "RTBassMultiply",
							"parameter_type" : 0,
							"parameter_unitstyle" : 0
						}

					}
,
					"varname" : "RTBassMultiply"
				}

			}
, 			{
				"box" : 				{
					"id" : "obj-2380",
					"maxclass" : "newobj",
					"numinlets" : 1,
					"numoutlets" : 1,
					"outlettype" : [ "" ],
					"patching_rect" : [ 0.0, 0.0, 139.0, 22.0 ],
					"text" : "prepend RTBassMultiply",
					"varname" : "prepRTBassMultiply"
				}

			}
, 			{
				"box" : 				{
					"id" : "obj-2382",
					"maxclass" : "live.dial",
					"numinlets" : 1,
					"numoutlets" : 2,
					"outlettype" : [ "", "float" ],
					"parameter_enable" : 1,
					"patching_rect" : [ 0.0, 0.0, 41.0, 48.0 ],
					"presentation" : 1,
					"presentation_rect" : [ 0.0, 210.0, 55.0, 48.0 ],
					"saved_attribute_attributes" : 					{
						"valueof" : 						{
							"parameter_longname" : "RTXover",
							"parameter_shortname" : "RTXover",
							"parameter_type" : 0,
							"parameter_unitstyle" : 0
						}

					}
,
					"varname" : "RTXover"
				}

			}
, 			{
				"box" : 				{
					"id" : "obj-2383",
					"maxclass" : "newobj",
					"numinlets" : 1,
					"numoutlets" : 1,
					"outlettype" : [ "" ],
					"patching_rect" : [ 0.0, 0.0, 103.0, 22.0 ],
					"text" : "prepend RTXover",
					"varname" : "prepRTXover"
				}

			}
, 			{
				"box" : 				{
					"id" : "obj-2385",
					"maxclass" : "live.dial",
					"numinlets" : 1,
					"numoutlets" : 2,
					"outlettype" : [ "", "float" ],
					"parameter_enable" : 1,
					"patching_rect" : [ 0.0, 0.0, 41.0, 48.0 ],
					"presentation" : 1,
					"presentation_rect" : [ 55.0, 210.0, 55.0, 48.0 ],
					"saved_attribute_attributes" : 					{
						"valueof" : 						{
							"parameter_longname" : "RTHighMultiply",
							"parameter_shortname" : "RTHighMultiply",
							"parameter_type" : 0,
							"parameter_unitstyle" : 0
						}

					}
,
					"varname" : "RTHighMultiply"
				}

			}
, 			{
				"box" : 				{
					"id" : "obj-2386",
					"maxclass" : "newobj",
					"numinlets" : 1,
					"numoutlets" : 1,
					"outlettype" : [ "" ],
					"patching_rect" : [ 0.0, 0.0, 137.0, 22.0 ],
					"text" : "prepend RTHighMultiply",
					"varname" : "prepRTHighMultiply"
				}

			}
, 			{
				"box" : 				{
					"id" : "obj-2388",
					"maxclass" : "live.dial",
					"numinlets" : 1,
					"numoutlets" : 2,
					"outlettype" : [ "", "float" ],
					"parameter_enable" : 1,
					"patching_rect" : [ 0.0, 0.0, 41.0, 48.0 ],
					"presentation" : 1,
					"presentation_rect" : [ 110.0, 210.0, 55.0, 48.0 ],
					"saved_attribute_attributes" : 					{
						"valueof" : 						{
							"parameter_longname" : "RTHighXover",
							"parameter_shortname" : "RTHighXover",
							"parameter_type" : 0,
							"parameter_unitstyle" : 0
						}

					}
,
					"varname" : "RTHighXover"
				}

			}
, 			{
				"box" : 				{
					"id" : "obj-2389",
					"maxclass" : "newobj",
					"numinlets" : 1,
					"numoutlets" : 1,
					"outlettype" : [ "" ],
					"patching_rect" : [ 0.0, 0.0, 128.0, 22.0 ],
					"text" : "prepend RTHighXover",
					"varname" : "prepRTHighXover"
				}

			}
, 			{
				"box" : 				{
					"id" : "obj-2391",
					"maxclass" : "live.dial",
					"numinlets" : 1,
					"numoutlets" : 2,
					"outlettype" : [ "", "float" ],
					"parameter_enable" : 1,
					"patching_rect" : [ 0.0, 0.0, 41.0, 48.0 ],
					"presentation" : 1,
					"presentation_rect" : [ 165.0, 210.0, 55.0, 48.0 ],
					"saved_attribute_attributes" : 					{
						"valueof" : 						{
							"parameter_longname" : "earlySize",
							"parameter_shortname" : "earlySize",
							"parameter_type" : 0,
							"parameter_unitstyle" : 0
						}

					}
,
					"varname" : "earlySize"
				}

			}
, 			{
				"box" : 				{
					"id" : "obj-2392",
					"maxclass" : "newobj",
					"numinlets" : 1,
					"numoutlets" : 1,
					"outlettype" : [ "" ],
					"patching_rect" : [ 0.0, 0.0, 105.0, 22.0 ],
					"text" : "prepend earlySize",
					"varname" : "prepearlySize"
				}

			}
, 			{
				"box" : 				{
					"id" : "obj-2394",
					"maxclass" : "live.dial",
					"numinlets" : 1,
					"numoutlets" : 2,
					"outlettype" : [ "", "float" ],
					"parameter_enable" : 1,
					"patching_rect" : [ 0.0, 0.0, 41.0, 48.0 ],
					"presentation" : 1,
					"presentation_rect" : [ 220.0, 210.0, 55.0, 48.0 ],
					"saved_attribute_attributes" : 					{
						"valueof" : 						{
							"parameter_longname" : "earlyCross",
							"parameter_shortname" : "earlyCross",
							"parameter_type" : 0,
							"parameter_unitstyle" : 0
						}

					}
,
					"varname" : "earlyCross"
				}

			}
, 			{
				"box" : 				{
					"id" : "obj-2395",
					"maxclass" : "newobj",
					"numinlets" : 1,
					"numoutlets" : 1,
					"outlettype" : [ "" ],
					"patching_rect" : [ 0.0, 0.0, 113.0, 22.0 ],
					"text" : "prepend earlyCross",
					"varname" : "prepearlyCross"
				}

			}
, 			{
				"box" : 				{
					"id" : "obj-2397",
					"maxclass" : "live.dial",
					"numinlets" : 1,
					"numoutlets" : 2,
					"outlettype" : [ "", "float" ],
					"parameter_enable" : 1,
					"patching_rect" : [ 0.0, 0.0, 41.0, 48.0 ],
					"presentation" : 1,
					"presentation_rect" : [ 0.0, 265.0, 55.0, 48.0 ],
					"saved_attribute_attributes" : 					{
						"valueof" : 						{
							"parameter_longname" : "earlyModRate",
							"parameter_shortname" : "earlyModRate",
							"parameter_type" : 0,
							"parameter_unitstyle" : 0
						}

					}
,
					"varname" : "earlyModRate"
				}

			}
, 			{
				"box" : 				{
					"id" : "obj-2398",
					"maxclass" : "newobj",
					"numinlets" : 1,
					"numoutlets" : 1,
					"outlettype" : [ "" ],
					"patching_rect" : [ 0.0, 0.0, 131.0, 22.0 ],
					"text" : "prepend earlyModRate",
					"varname" : "prepearlyModRate"
				}

			}
, 			{
				"box" : 				{
					"id" : "obj-2400",
					"maxclass" : "live.dial",
					"numinlets" : 1,
					"numoutlets" : 2,
					"outlettype" : [ "", "float" ],
					"parameter_enable" : 1,
					"patching_rect" : [ 0.0, 0.0, 41.0, 48.0 ],
					"presentation" : 1,
					"presentation_rect" : [ 55.0, 265.0, 55.0, 48.0 ],
					"saved_attribute_attributes" : 					{
						"valueof" : 						{
							"parameter_longname" : "earlyModDepth",
							"parameter_shortname" : "earlyModDepth",
							"parameter_type" : 0,
							"parameter_unitstyle" : 0
						}

					}
,
					"varname" : "earlyModDepth"
				}

			}
, 			{
				"box" : 				{
					"id" : "obj-2401",
					"maxclass" : "newobj",
					"numinlets" : 1,
					"numoutlets" : 1,
					"outlettype" : [ "" ],
					"patching_rect" : [ 0.0, 0.0, 137.0, 22.0 ],
					"text" : "prepend earlyModDepth",
					"varname" : "prepearlyModDepth"
				}

			}
, 			{
				"box" : 				{
					"id" : "obj-2403",
					"maxclass" : "live.dial",
					"numinlets" : 1,
					"numoutlets" : 2,
					"outlettype" : [ "", "float" ],
					"parameter_enable" : 1,
					"patching_rect" : [ 0.0, 0.0, 41.0, 48.0 ],
					"presentation" : 1,
					"presentation_rect" : [ 110.0, 265.0, 55.0, 48.0 ],
					"saved_attribute_attributes" : 					{
						"valueof" : 						{
							"parameter_longname" : "earlySend",
							"parameter_shortname" : "earlySend",
							"parameter_type" : 0,
							"parameter_unitstyle" : 0
						}

					}
,
					"varname" : "earlySend"
				}

			}
, 			{
				"box" : 				{
					"id" : "obj-2404",
					"maxclass" : "newobj",
					"numinlets" : 1,
					"numoutlets" : 1,
					"outlettype" : [ "" ],
					"patching_rect" : [ 0.0, 0.0, 110.0, 22.0 ],
					"text" : "prepend earlySend",
					"varname" : "prepearlySend"
				}

			}
, 			{
				"box" : 				{
					"id" : "obj-2406",
					"maxclass" : "live.dial",
					"numinlets" : 1,
					"numoutlets" : 2,
					"outlettype" : [ "", "float" ],
					"parameter_enable" : 1,
					"patching_rect" : [ 0.0, 0.0, 41.0, 48.0 ],
					"presentation" : 1,
					"presentation_rect" : [ 165.0, 265.0, 55.0, 48.0 ],
					"saved_attribute_attributes" : 					{
						"valueof" : 						{
							"parameter_longname" : "diffusion",
							"parameter_shortname" : "diffusion",
							"parameter_type" : 0,
							"parameter_unitstyle" : 0
						}

					}
,
					"varname" : "diffusion"
				}

			}
, 			{
				"box" : 				{
					"id" : "obj-2407",
					"maxclass" : "newobj",
					"numinlets" : 1,
					"numoutlets" : 1,
					"outlettype" : [ "" ],
					"patching_rect" : [ 0.0, 0.0, 100.0, 22.0 ],
					"text" : "prepend diffusion",
					"varname" : "prepdiffusion"
				}

			}
, 			{
				"box" : 				{
					"id" : "obj-2409",
					"maxclass" : "live.dial",
					"numinlets" : 1,
					"numoutlets" : 2,
					"outlettype" : [ "", "float" ],
					"parameter_enable" : 1,
					"patching_rect" : [ 0.0, 0.0, 41.0, 48.0 ],
					"presentation" : 1,
					"presentation_rect" : [ 220.0, 265.0, 55.0, 48.0 ],
					"saved_attribute_attributes" : 					{
						"valueof" : 						{
							"parameter_longname" : "type",
							"parameter_shortname" : "type",
							"parameter_type" : 0,
							"parameter_unitstyle" : 0
						}

					}
,
					"varname" : "type"
				}

			}
, 			{
				"box" : 				{
					"id" : "obj-2410",
					"maxclass" : "newobj",
					"numinlets" : 1,
					"numoutlets" : 1,
					"outlettype" : [ "" ],
					"patching_rect" : [ 0.0, 0.0, 100.0, 22.0 ],
					"text" : "prepend type",
					"varname" : "preptype"
				}

			}
 ],
		"lines" : [ 			{
				"patchline" : 				{
					"destination" : [ "obj-2116", 0 ],
					"source" : [ "obj-10", 0 ]
				}

			}
, 			{
				"patchline" : 				{
					"destination" : [ "obj-14", 0 ],
					"midpoints" : [ 909.307690799236298, 728.299896121025085, 695.50000274181366, 728.299896121025085 ],
					"source" : [ "obj-1257", 0 ]
				}

			}
, 			{
				"patchline" : 				{
					"destination" : [ "obj-90", 0 ],
					"source" : [ "obj-13", 0 ]
				}

			}
, 			{
				"patchline" : 				{
					"destination" : [ "obj-207", 0 ],
					"order" : 1,
					"source" : [ "obj-137", 0 ]
				}

			}
, 			{
				"patchline" : 				{
					"destination" : [ "obj-472", 1 ],
					"order" : 0,
					"source" : [ "obj-137", 0 ]
				}

			}
, 			{
				"patchline" : 				{
					"destination" : [ "obj-137", 0 ],
					"source" : [ "obj-140", 0 ]
				}

			}
, 			{
				"patchline" : 				{
					"destination" : [ "obj-2116", 0 ],
					"source" : [ "obj-140", 1 ]
				}

			}
, 			{
				"patchline" : 				{
					"destination" : [ "obj-14", 0 ],
					"midpoints" : [ 717.730773210525513, 714.793485254049301, 695.50000274181366, 714.793485254049301 ],
					"source" : [ "obj-142", 0 ]
				}

			}
, 			{
				"patchline" : 				{
					"destination" : [ "obj-10", 0 ],
					"source" : [ "obj-15", 1 ]
				}

			}
, 			{
				"patchline" : 				{
					"destination" : [ "obj-3", 0 ],
					"midpoints" : [ 185.5, 176.591952204704285, 434.076917588710785, 176.591952204704285 ],
					"source" : [ "obj-15", 0 ]
				}

			}
, 			{
				"patchline" : 				{
					"destination" : [ "obj-472", 0 ],
					"midpoints" : [ 207.5, 169.281607985496521, 673.923079073429108, 169.281607985496521 ],
					"source" : [ "obj-15", 2 ]
				}

			}
, 			{
				"patchline" : 				{
					"destination" : [ "obj-1530", 0 ],
					"source" : [ "obj-1528", 0 ]
				}

			}
, 			{
				"patchline" : 				{
					"destination" : [ "obj-214", 0 ],
					"source" : [ "obj-1529", 0 ]
				}

			}
, 			{
				"patchline" : 				{
					"destination" : [ "obj-2071", 0 ],
					"source" : [ "obj-1530", 0 ]
				}

			}
, 			{
				"patchline" : 				{
					"destination" : [ "obj-14", 0 ],
					"source" : [ "obj-16", 0 ]
				}

			}
, 			{
				"patchline" : 				{
					"destination" : [ "obj-16", 0 ],
					"source" : [ "obj-176", 0 ]
				}

			}
, 			{
				"patchline" : 				{
					"destination" : [ "obj-176", 1 ],
					"source" : [ "obj-177", 0 ]
				}

			}
, 			{
				"patchline" : 				{
					"destination" : [ "obj-177", 0 ],
					"source" : [ "obj-179", 0 ]
				}

			}
, 			{
				"patchline" : 				{
					"destination" : [ "obj-44", 0 ],
					"source" : [ "obj-18", 0 ]
				}

			}
, 			{
				"patchline" : 				{
					"destination" : [ "obj-176", 2 ],
					"source" : [ "obj-186", 0 ]
				}

			}
, 			{
				"patchline" : 				{
					"destination" : [ "obj-215", 0 ],
					"source" : [ "obj-207", 0 ]
				}

			}
, 			{
				"patchline" : 				{
					"destination" : [ "obj-176", 4 ],
					"source" : [ "obj-2071", 0 ]
				}

			}
, 			{
				"patchline" : 				{
					"destination" : [ "obj-137", 0 ],
					"midpoints" : [ 217.5, 269.543103665113449, 434.076917588710785, 269.543103665113449 ],
					"source" : [ "obj-2116", 2 ]
				}

			}
, 			{
				"patchline" : 				{
					"destination" : [ "obj-54", 0 ],
					"source" : [ "obj-2116", 0 ]
				}

			}
, 			{
				"patchline" : 				{
					"destination" : [ "obj-1528", 0 ],
					"order" : 0,
					"source" : [ "obj-213", 1 ]
				}

			}
, 			{
				"patchline" : 				{
					"destination" : [ "obj-1529", 0 ],
					"order" : 1,
					"source" : [ "obj-213", 1 ]
				}

			}
, 			{
				"patchline" : 				{
					"destination" : [ "obj-176", 0 ],
					"midpoints" : [ 434.076917588710785, 757.501285284757614, 730.903845399618149, 757.501285284757614 ],
					"order" : 2,
					"source" : [ "obj-213", 0 ]
				}

			}
, 			{
				"patchline" : 				{
					"destination" : [ "obj-179", 0 ],
					"midpoints" : [ 434.076917588710785, 742.466097503900528, 924.505135148763657, 742.466097503900528 ],
					"order" : 1,
					"source" : [ "obj-213", 0 ]
				}

			}
, 			{
				"patchline" : 				{
					"destination" : [ "obj-186", 1 ],
					"midpoints" : [ 434.076917588710785, 728.786786526441574, 1257.338471233844757, 728.786786526441574 ],
					"order" : 0,
					"source" : [ "obj-213", 0 ]
				}

			}
, 			{
				"patchline" : 				{
					"destination" : [ "obj-176", 3 ],
					"midpoints" : [ 478.576917588710785, 693.025289714336395, 1131.629810757935047, 693.025289714336395 ],
					"source" : [ "obj-214", 0 ]
				}

			}
, 			{
				"patchline" : 				{
					"destination" : [ "obj-213", 0 ],
					"source" : [ "obj-215", 0 ]
				}

			}
, 			{
				"patchline" : 				{
					"destination" : [ "obj-2116", 0 ],
					"source" : [ "obj-2350", 0 ]
				}

			}
, 			{
				"patchline" : 				{
					"destination" : [ "obj-2353", 0 ],
					"source" : [ "obj-2352", 1 ]
				}

			}
, 			{
				"patchline" : 				{
					"destination" : [ "obj-2116", 0 ],
					"source" : [ "obj-2353", 0 ]
				}

			}
, 			{
				"patchline" : 				{
					"destination" : [ "obj-2356", 0 ],
					"source" : [ "obj-2355", 1 ]
				}

			}
, 			{
				"patchline" : 				{
					"destination" : [ "obj-2116", 0 ],
					"source" : [ "obj-2356", 0 ]
				}

			}
, 			{
				"patchline" : 				{
					"destination" : [ "obj-2359", 0 ],
					"source" : [ "obj-2358", 1 ]
				}

			}
, 			{
				"patchline" : 				{
					"destination" : [ "obj-2116", 0 ],
					"source" : [ "obj-2359", 0 ]
				}

			}
, 			{
				"patchline" : 				{
					"destination" : [ "obj-2362", 0 ],
					"source" : [ "obj-2361", 1 ]
				}

			}
, 			{
				"patchline" : 				{
					"destination" : [ "obj-2116", 0 ],
					"source" : [ "obj-2362", 0 ]
				}

			}
, 			{
				"patchline" : 				{
					"destination" : [ "obj-2365", 0 ],
					"source" : [ "obj-2364", 1 ]
				}

			}
, 			{
				"patchline" : 				{
					"destination" : [ "obj-2116", 0 ],
					"source" : [ "obj-2365", 0 ]
				}

			}
, 			{
				"patchline" : 				{
					"destination" : [ "obj-2368", 0 ],
					"source" : [ "obj-2367", 1 ]
				}

			}
, 			{
				"patchline" : 				{
					"destination" : [ "obj-2116", 0 ],
					"source" : [ "obj-2368", 0 ]
				}

			}
, 			{
				"patchline" : 				{
					"destination" : [ "obj-2371", 0 ],
					"source" : [ "obj-2370", 1 ]
				}

			}
, 			{
				"patchline" : 				{
					"destination" : [ "obj-2116", 0 ],
					"source" : [ "obj-2371", 0 ]
				}

			}
, 			{
				"patchline" : 				{
					"destination" : [ "obj-2374", 0 ],
					"source" : [ "obj-2373", 1 ]
				}

			}
, 			{
				"patchline" : 				{
					"destination" : [ "obj-2116", 0 ],
					"source" : [ "obj-2374", 0 ]
				}

			}
, 			{
				"patchline" : 				{
					"destination" : [ "obj-2377", 0 ],
					"source" : [ "obj-2376", 1 ]
				}

			}
, 			{
				"patchline" : 				{
					"destination" : [ "obj-2116", 0 ],
					"source" : [ "obj-2377", 0 ]
				}

			}
, 			{
				"patchline" : 				{
					"destination" : [ "obj-2380", 0 ],
					"source" : [ "obj-2379", 1 ]
				}

			}
, 			{
				"patchline" : 				{
					"destination" : [ "obj-2116", 0 ],
					"source" : [ "obj-2380", 0 ]
				}

			}
, 			{
				"patchline" : 				{
					"destination" : [ "obj-2383", 0 ],
					"source" : [ "obj-2382", 1 ]
				}

			}
, 			{
				"patchline" : 				{
					"destination" : [ "obj-2116", 0 ],
					"source" : [ "obj-2383", 0 ]
				}

			}
, 			{
				"patchline" : 				{
					"destination" : [ "obj-2386", 0 ],
					"source" : [ "obj-2385", 1 ]
				}

			}
, 			{
				"patchline" : 				{
					"destination" : [ "obj-2116", 0 ],
					"source" : [ "obj-2386", 0 ]
				}

			}
, 			{
				"patchline" : 				{
					"destination" : [ "obj-2389", 0 ],
					"source" : [ "obj-2388", 1 ]
				}

			}
, 			{
				"patchline" : 				{
					"destination" : [ "obj-2116", 0 ],
					"source" : [ "obj-2389", 0 ]
				}

			}
, 			{
				"patchline" : 				{
					"destination" : [ "obj-2392", 0 ],
					"source" : [ "obj-2391", 1 ]
				}

			}
, 			{
				"patchline" : 				{
					"destination" : [ "obj-2116", 0 ],
					"source" : [ "obj-2392", 0 ]
				}

			}
, 			{
				"patchline" : 				{
					"destination" : [ "obj-2395", 0 ],
					"source" : [ "obj-2394", 1 ]
				}

			}
, 			{
				"patchline" : 				{
					"destination" : [ "obj-2116", 0 ],
					"source" : [ "obj-2395", 0 ]
				}

			}
, 			{
				"patchline" : 				{
					"destination" : [ "obj-2398", 0 ],
					"source" : [ "obj-2397", 1 ]
				}

			}
, 			{
				"patchline" : 				{
					"destination" : [ "obj-2116", 0 ],
					"source" : [ "obj-2398", 0 ]
				}

			}
, 			{
				"patchline" : 				{
					"destination" : [ "obj-2401", 0 ],
					"source" : [ "obj-2400", 1 ]
				}

			}
, 			{
				"patchline" : 				{
					"destination" : [ "obj-2116", 0 ],
					"source" : [ "obj-2401", 0 ]
				}

			}
, 			{
				"patchline" : 				{
					"destination" : [ "obj-2404", 0 ],
					"source" : [ "obj-2403", 1 ]
				}

			}
, 			{
				"patchline" : 				{
					"destination" : [ "obj-2116", 0 ],
					"source" : [ "obj-2404", 0 ]
				}

			}
, 			{
				"patchline" : 				{
					"destination" : [ "obj-2407", 0 ],
					"source" : [ "obj-2406", 1 ]
				}

			}
, 			{
				"patchline" : 				{
					"destination" : [ "obj-2116", 0 ],
					"source" : [ "obj-2407", 0 ]
				}

			}
, 			{
				"patchline" : 				{
					"destination" : [ "obj-2410", 0 ],
					"source" : [ "obj-2409", 1 ]
				}

			}
, 			{
				"patchline" : 				{
					"destination" : [ "obj-2116", 0 ],
					"source" : [ "obj-2410", 0 ]
				}

			}
, 			{
				"patchline" : 				{
					"destination" : [ "obj-140", 0 ],
					"source" : [ "obj-3", 0 ]
				}

			}
, 			{
				"patchline" : 				{
					"destination" : [ "obj-17", 0 ],
					"source" : [ "obj-44", 0 ]
				}

			}
, 			{
				"patchline" : 				{
					"destination" : [ "obj-475", 0 ],
					"source" : [ "obj-472", 0 ]
				}

			}
, 			{
				"patchline" : 				{
					"destination" : [ "obj-142", 0 ],
					"order" : 1,
					"source" : [ "obj-474", 1 ]
				}

			}
, 			{
				"patchline" : 				{
					"destination" : [ "obj-664", 1 ],
					"midpoints" : [ 717.923079073429108, 485.762339055538177, 1084.5, 485.762339055538177 ],
					"order" : 0,
					"source" : [ "obj-474", 1 ]
				}

			}
, 			{
				"patchline" : 				{
					"destination" : [ "obj-474", 0 ],
					"source" : [ "obj-475", 0 ]
				}

			}
, 			{
				"patchline" : 				{
					"destination" : [ "obj-5", 0 ],
					"source" : [ "obj-54", 0 ]
				}

			}
, 			{
				"patchline" : 				{
					"destination" : [ "obj-472", 0 ],
					"source" : [ "obj-626", 0 ]
				}

			}
, 			{
				"patchline" : 				{
					"destination" : [ "obj-1257", 0 ],
					"source" : [ "obj-664", 0 ]
				}

			}
, 			{
				"patchline" : 				{
					"destination" : [ "obj-89", 0 ],
					"source" : [ "obj-85", 0 ]
				}

			}
, 			{
				"patchline" : 				{
					"destination" : [ "obj-90", 0 ],
					"source" : [ "obj-89", 0 ]
				}

			}
, 			{
				"patchline" : 				{
					"destination" : [ "obj-15", 0 ],
					"midpoints" : [ 250.75, 141.982758462429047, 185.5, 141.982758462429047 ],
					"source" : [ "obj-90", 1 ]
				}

			}
 ],
		"parameters" : 		{
			"obj-2116" : [ "vst~[1]", "vst~[1]", 0 ],
			"obj-2352" : [ "mix", "mix", 0 ],
			"obj-2355" : [ "predelay", "predelay", 0 ],
			"obj-2358" : [ "decay", "decay", 0 ],
			"obj-2361" : [ "HighCut", "HighCut", 0 ],
			"obj-2364" : [ "earlyLateMix", "earlyLateMix", 0 ],
			"obj-2367" : [ "lateSize", "lateSize", 0 ],
			"obj-2370" : [ "lateCross", "lateCross", 0 ],
			"obj-2373" : [ "lateModRate", "lateModRate", 0 ],
			"obj-2376" : [ "lateModDepth", "lateModDepth", 0 ],
			"obj-2379" : [ "RTBassMultiply", "RTBassMultiply", 0 ],
			"obj-2382" : [ "RTXover", "RTXover", 0 ],
			"obj-2385" : [ "RTHighMultiply", "RTHighMultiply", 0 ],
			"obj-2388" : [ "RTHighXover", "RTHighXover", 0 ],
			"obj-2391" : [ "earlySize", "earlySize", 0 ],
			"obj-2394" : [ "earlyCross", "earlyCross", 0 ],
			"obj-2397" : [ "earlyModRate", "earlyModRate", 0 ],
			"obj-2400" : [ "earlyModDepth", "earlyModDepth", 0 ],
			"obj-2403" : [ "earlySend", "earlySend", 0 ],
			"obj-2406" : [ "diffusion", "diffusion", 0 ],
			"obj-2409" : [ "type", "type", 0 ],
			"parameterbanks" : 			{

			}
,
			"inherited_shortname" : 1
		}
,
		"dependency_cache" : [  ],
		"autosave" : 0,
		"styles" : [ 			{
				"name" : "AudioStatus_Menu",
				"default" : 				{
					"bgfillcolor" : 					{
						"type" : "color",
						"color" : [ 0.294118, 0.313726, 0.337255, 1 ],
						"color1" : [ 0.454902, 0.462745, 0.482353, 0.0 ],
						"color2" : [ 0.290196, 0.309804, 0.301961, 1.0 ],
						"angle" : 270.0,
						"proportion" : 0.39,
						"autogradient" : 0
					}

				}
,
				"parentstyle" : "",
				"multi" : 0
			}
 ],
		"bgcolor" : [ 0.890196078431372, 0.988235294117647, 0.996078431372549, 1.0 ]
	}

}
